<svg width="737" height="740" viewBox="0 0 737 740" fill="none" xmlns="http://www.w3.org/2000/svg">
<rect width="737" height="740" fill="#3DDE74"/>
<path d="M383.135 337.64C383.148 344.01 383.161 350.38 383.161 356.764C387.538 359.565 391.903 362.38 396.267 365.194L473.679 414.976V407.809C473.679 373.459 473.679 339.095 473.718 304.745L382.965 249.801L383.135 337.626V337.64Z" fill="black"/>
<path d="M246.568 274.718L298.014 244.212C319.693 231.361 341.385 218.497 363.064 205.633C364.566 204.741 366.082 204.288 367.598 204.288C369.114 204.288 370.669 204.754 372.185 205.674C385.2 213.61 398.241 221.504 411.295 229.412L432.281 242.125C451.125 253.534 469.968 264.943 488.798 276.379C512.071 262.224 535.37 248.097 558.669 233.97L589.103 215.518L457.724 134.942C427.564 116.435 397.418 97.9005 367.284 79.3662C350.035 90.0063 332.773 100.619 315.511 111.232L146.106 215.436L163.407 225.636C191.136 242.001 218.865 258.367 246.581 274.745L246.568 274.718Z" fill="#AAAAAA"/>
<path d="M350.27 529.41L349.904 529.162L275.407 481.069C262.339 472.626 249.285 464.182 236.204 455.766C233.277 453.886 231.657 450.906 231.67 447.378C231.67 443.52 231.67 439.648 231.618 435.777L230.455 331.586C230.35 321.825 230.246 312.064 230.167 302.302C227.541 300.778 224.914 299.227 222.301 297.676L129.679 243.061V389.304C129.679 430.848 129.679 472.406 129.653 513.951C150.221 526.375 170.776 538.828 191.331 551.294L351.707 648.51V643.567C351.707 631.595 351.694 619.747 351.707 607.899C351.746 591.506 351.798 575.114 351.851 558.707L351.942 532.073C351.942 531.551 351.968 531.016 352.008 530.467C351.55 530.22 351.106 529.972 350.688 529.698C350.649 529.67 350.296 529.423 350.256 529.41H350.27Z" fill="black"/>
<path d="M262.536 302.589C262.105 302.837 261.647 303.084 261.177 303.317C261.216 303.784 261.242 304.251 261.255 304.704L262.379 413.864L271.761 407.864C298.549 390.744 325.351 373.638 352.165 356.545C352.126 342.582 352.113 328.62 352.113 314.657L352.073 249.526L262.549 302.589H262.536Z" fill="white"/>
<path d="M458.913 443.628L413.138 414.166C397.914 404.377 382.691 394.574 367.48 384.758C344.181 399.668 320.869 414.564 297.557 429.46L275.969 443.244L294.12 454.955C318.53 470.702 342.94 486.463 367.323 502.252C391.381 486.834 415.451 471.43 439.534 456.026L458.913 443.628Z" fill="#AAAAAA"/>
<path d="M604.705 243.638L601.504 245.574C569.188 265.165 536.873 284.756 504.544 304.307C504.57 332.699 504.583 361.077 504.583 389.455L504.609 447.378C504.609 450.755 503.159 453.474 500.415 455.217C495.567 458.265 490.758 461.354 485.949 464.443L470.516 474.328C441.311 493.027 412.118 511.713 382.9 530.384C382.874 539.034 382.834 547.683 382.782 556.332L382.469 648.51L447.727 608.929C500.062 577.187 552.384 545.459 604.732 513.758C604.705 426.331 604.705 338.918 604.705 251.491V243.651V243.638Z" fill="white"/>
<path d="M635.596 211.716C635.596 208.147 634.198 205.483 631.415 203.781C619.04 196.244 606.691 188.651 594.343 181.059L452.98 94.3185C429.798 80.0952 406.63 65.8718 383.474 51.621C382.246 50.8659 381.005 50.1245 379.763 49.3831C376.692 47.5434 373.791 45.7998 371.008 43.864C369.963 43.1364 368.734 42.752 367.493 42.752H366.892C365.206 42.752 363.651 43.4521 362.501 44.5917C353.811 49.9597 345.122 55.3141 336.419 60.6685L103.453 203.932C100.435 205.799 98.7622 208.819 98.7622 212.471C98.7883 317.431 98.7883 422.403 98.7622 527.349C98.7622 531.893 101.167 534.296 103.192 535.518C125.067 548.712 146.916 561.946 168.764 575.195L289.441 648.385C313.734 663.103 338.026 677.82 362.305 692.565C363.86 693.513 365.467 693.979 367.062 693.979C368.656 693.979 370.263 693.499 371.805 692.565C399.09 675.981 426.388 659.423 453.685 642.866L459.291 639.475C516.291 604.918 573.304 570.349 630.33 535.834C633.819 533.733 635.596 530.465 635.596 526.141C635.583 462.067 635.583 398.007 635.583 333.947V211.73L635.596 211.716ZM315.511 111.205C332.773 100.593 350.048 89.9664 367.284 79.3401C397.417 97.8744 427.564 116.409 457.723 134.916L589.103 215.492L558.669 233.944C535.37 248.071 512.07 262.198 488.797 276.353C469.967 264.917 451.124 253.508 432.281 242.099L411.295 229.386C398.253 221.491 385.212 213.583 372.184 205.648C370.668 204.714 369.126 204.261 367.597 204.261C366.068 204.261 364.579 204.701 363.063 205.607C341.384 218.471 319.692 231.335 298.014 244.186L246.567 274.692C218.851 258.313 191.122 241.948 163.393 225.583L146.092 215.382L315.498 111.178L315.511 111.205ZM473.731 304.745C473.691 339.095 473.691 373.459 473.691 407.809V414.976L396.28 365.194C391.916 362.38 387.551 359.565 383.174 356.765C383.174 350.394 383.174 344.024 383.148 337.64L382.978 249.815L473.731 304.759V304.745ZM352.152 356.545C325.337 373.638 298.549 390.744 271.748 407.864L262.366 413.864L261.242 304.704C261.242 304.251 261.203 303.784 261.164 303.317C261.634 303.084 262.091 302.837 262.523 302.589L352.047 249.526L352.086 314.657C352.086 328.62 352.086 342.582 352.139 356.545H352.152ZM351.956 532.072L351.864 558.706C351.812 575.099 351.747 591.491 351.72 607.898C351.694 619.746 351.707 631.594 351.72 643.566V648.508L191.358 551.293C170.803 538.827 150.248 526.36 129.68 513.949C129.706 472.405 129.706 430.847 129.706 389.303V243.06L222.327 297.674C224.954 299.226 227.58 300.777 230.194 302.301C230.272 312.063 230.377 321.824 230.481 331.585L231.644 435.776C231.684 439.647 231.71 443.519 231.697 447.377C231.697 450.905 233.291 453.884 236.231 455.765C249.311 464.181 262.366 472.625 275.433 481.068L349.93 529.161L350.296 529.408C350.296 529.408 350.688 529.683 350.727 529.697C351.146 529.971 351.59 530.232 352.047 530.465C352.008 531.015 351.982 531.55 351.982 532.072H351.956ZM367.336 502.238C342.952 486.45 318.542 470.689 294.133 454.942L275.982 443.231L297.569 429.447C320.882 414.55 344.207 399.668 367.493 384.745C382.703 394.561 397.927 404.363 413.15 414.152L458.925 443.615L439.546 456.012C415.476 471.416 391.393 486.807 367.336 502.238ZM447.727 608.9L382.468 648.481L382.782 556.304C382.821 547.654 382.873 538.991 382.899 530.356C412.118 511.684 441.31 492.985 470.516 474.3L485.949 464.415C490.757 461.326 495.566 458.25 500.414 455.189C503.171 453.445 504.622 450.727 504.609 447.349L504.583 389.426C504.583 361.048 504.57 332.67 504.544 304.278C536.872 284.728 569.188 265.136 601.503 245.545L604.705 243.609V251.448C604.705 338.862 604.705 426.289 604.731 513.716C552.383 545.417 500.061 577.158 447.727 608.886V608.9Z" fill="#3DDE74"/>
</svg>
