<svg width="682" height="740" viewBox="0 0 682 740" fill="none" xmlns="http://www.w3.org/2000/svg">
<path d="M621.689 221.476C621.689 217.826 620.211 215.102 617.269 213.361C604.189 205.654 591.136 197.89 578.083 190.126L428.66 101.425C404.157 86.8805 379.668 72.3357 355.192 57.7628C353.894 56.9906 352.582 56.2325 351.269 55.4744C348.024 53.5931 344.957 51.8101 342.015 49.8305C340.91 49.0865 339.612 48.6934 338.3 48.6934H337.664C335.882 48.6934 334.239 49.4094 333.023 50.5746C323.838 56.064 314.653 61.5394 305.454 67.0148L59.2058 213.516C56.0151 215.425 54.2471 218.514 54.2471 222.248C54.2747 329.579 54.2747 436.925 54.2471 544.242C54.2471 548.889 56.7886 551.346 58.9295 552.595C82.0515 566.087 105.146 579.621 128.24 593.169L255.798 668.013C281.475 683.063 307.153 698.113 332.816 713.192C334.46 714.16 336.159 714.638 337.844 714.638C339.529 714.638 341.228 714.146 342.858 713.192C371.698 696.232 400.552 679.301 429.406 662.369L435.332 658.901C495.582 623.564 555.845 588.213 616.123 552.918C619.811 550.77 621.689 547.429 621.689 543.006C621.675 477.484 621.675 411.977 621.675 346.469V221.49L621.689 221.476ZM283.354 118.694C301.6 107.841 319.86 96.9748 338.079 86.1083C369.93 105.061 401.795 124.015 433.674 142.94L572.544 225.337L540.375 244.206C515.748 258.652 491.12 273.099 466.52 287.574C446.617 275.879 426.699 264.212 406.782 252.545L384.599 239.545C370.814 231.472 357.029 223.385 343.258 215.271C341.656 214.316 340.026 213.853 338.41 213.853C336.794 213.853 335.219 214.302 333.617 215.229C310.702 228.383 287.774 241.538 264.859 254.679L210.479 285.875C181.183 269.126 151.873 252.391 122.563 235.656L104.276 225.225L283.34 118.666L283.354 118.694ZM450.595 316.607C450.553 351.734 450.553 386.874 450.553 422.001V429.329L368.728 378.422C364.115 375.544 359.502 372.666 354.874 369.802C354.874 363.288 354.875 356.774 354.847 350.245L354.667 260.435L450.595 316.621V316.607ZM322.084 369.578C293.741 387.057 265.425 404.55 237.096 422.057L227.179 428.192L225.991 316.565C225.991 316.102 225.949 315.624 225.908 315.147C226.405 314.908 226.889 314.656 227.344 314.403L321.973 260.141L322.015 326.743C322.015 341.021 322.015 355.3 322.07 369.578H322.084ZM321.877 549.071L321.78 576.308C321.725 593.071 321.656 609.834 321.628 626.611C321.6 638.727 321.614 650.843 321.628 663.085V668.139L152.122 568.726C130.395 555.979 108.668 543.231 86.9273 530.539C86.9549 488.056 86.955 445.559 86.955 403.076V253.528L184.857 309.377C187.634 310.963 190.41 312.55 193.172 314.108C193.255 324.09 193.366 334.072 193.476 344.054L194.706 450.599C194.747 454.558 194.775 458.517 194.761 462.462C194.761 466.07 196.446 469.117 199.554 471.04C213.38 479.646 227.179 488.281 240.991 496.915L319.736 546.095L320.122 546.347C320.122 546.347 320.537 546.628 320.578 546.642C321.02 546.923 321.49 547.19 321.973 547.429C321.932 547.99 321.904 548.538 321.904 549.071H321.877ZM338.134 518.564C312.36 502.418 286.558 486.301 260.757 470.198L241.571 458.222L264.389 444.127C289.031 428.894 313.686 413.675 338.3 398.414C354.377 408.453 370.469 418.477 386.56 428.487L434.945 458.615L414.461 471.293C389.019 487.045 363.562 502.783 338.134 518.564ZM423.108 627.636L354.129 668.111L354.46 573.851C354.502 565.006 354.557 556.147 354.584 547.316C385.469 528.223 416.326 509.101 447.197 489.993L463.509 479.885C468.592 476.726 473.675 473.581 478.8 470.451C481.714 468.668 483.247 465.888 483.233 462.434L483.206 403.202C483.206 374.182 483.192 345.163 483.164 316.13C517.336 296.138 551.494 276.103 585.652 256.069L589.037 254.09V262.106C589.037 351.495 589.037 440.898 589.064 530.3C533.732 562.717 478.427 595.176 423.108 627.621V627.636Z" fill="black"/>
<rect width="682" height="740" stroke="black"/>
</svg>
