<svg width="740" height="740" viewBox="0 0 740 740" fill="none" xmlns="http://www.w3.org/2000/svg">
<path d="M384.694 337.64C384.707 344.01 384.72 350.38 384.72 356.764C389.116 359.565 393.498 362.38 397.88 365.194L475.607 414.976V407.809C475.607 373.459 475.607 339.095 475.646 304.745L384.524 249.801L384.694 337.626V337.64Z" fill="black"/>
<path d="M247.572 274.718L299.227 244.212C320.994 231.361 342.774 218.497 364.541 205.633C366.05 204.741 367.572 204.288 369.094 204.288C370.616 204.288 372.178 204.754 373.7 205.674C386.768 213.61 399.862 221.504 412.969 229.412L434.041 242.125C452.961 253.534 471.881 264.943 490.787 276.379C514.155 262.224 537.549 248.097 560.943 233.97L591.501 215.518L459.587 134.942C429.305 116.435 399.035 97.9005 368.779 79.3662C351.46 90.0063 334.128 100.619 316.796 111.232L146.701 215.436L164.072 225.636C191.914 242.001 219.756 258.367 247.585 274.745L247.572 274.718Z" fill="#3DDE74"/>
<path d="M351.695 529.41L351.328 529.162L276.528 481.069C263.407 472.626 250.3 464.182 237.166 455.766C234.227 453.886 232.6 450.906 232.613 447.378C232.613 443.52 232.613 439.648 232.561 435.777L231.393 331.586C231.288 321.825 231.183 312.064 231.104 302.302C228.467 300.778 225.83 299.227 223.206 297.676L130.207 243.061V389.304C130.207 430.848 130.207 472.406 130.181 513.951C150.832 526.375 171.471 538.828 192.11 551.294L353.139 648.51V643.567C353.139 631.595 353.125 619.747 353.139 607.899C353.178 591.506 353.23 575.114 353.283 558.707L353.375 532.073C353.375 531.551 353.401 531.016 353.44 530.467C352.981 530.22 352.535 529.972 352.115 529.698C352.076 529.67 351.721 529.423 351.682 529.41H351.695Z" fill="black"/>
<path d="M263.604 302.589C263.171 302.837 262.712 303.084 262.24 303.317C262.279 303.784 262.305 304.251 262.318 304.704L263.447 413.864L272.867 407.864C299.765 390.744 326.675 373.638 353.598 356.545C353.559 342.582 353.546 328.62 353.546 314.657L353.506 249.526L263.617 302.589H263.604Z" fill="#AAAAAA"/>
<path d="M460.781 443.628L414.819 414.166C399.534 404.377 384.248 394.574 368.976 384.758C345.582 399.668 322.175 414.564 298.768 429.46L277.093 443.244L295.317 454.955C319.826 470.702 344.336 486.463 368.819 502.252C392.973 486.834 417.142 471.43 441.323 456.026L460.781 443.628Z" fill="#3DDE74"/>
<path d="M607.167 243.638L603.952 245.574C571.505 265.165 539.058 284.756 506.598 304.307C506.624 332.699 506.637 361.077 506.637 389.455L506.663 447.378C506.663 450.755 505.207 453.474 502.452 455.217C497.584 458.265 492.755 461.354 487.927 464.443L472.432 474.328C443.107 493.027 413.796 511.713 384.458 530.384C384.432 539.034 384.393 547.683 384.34 556.332L384.025 648.51L449.549 608.929C502.097 577.187 554.632 545.459 607.193 513.758C607.167 426.331 607.167 338.918 607.167 251.491V243.651V243.638Z" fill="#AAAAAA"/>
</svg>
