<svg width="740" height="740" viewBox="0 0 740 740" fill="none" xmlns="http://www.w3.org/2000/svg">
<rect width="740" height="740" fill="white"/>
<path d="M384.694 337.64C384.707 344.01 384.72 350.38 384.72 356.764C389.116 359.565 393.498 362.38 397.88 365.194L475.607 414.976V407.809C475.607 373.459 475.607 339.095 475.646 304.745L384.524 249.801L384.694 337.626V337.64Z" fill="black"/>
<path d="M247.571 274.718L299.227 244.212C320.994 231.361 342.774 218.497 364.541 205.633C366.05 204.741 367.572 204.288 369.094 204.288C370.616 204.288 372.178 204.754 373.699 205.674C386.768 213.61 399.862 221.504 412.969 229.412L434.041 242.125C452.961 253.534 471.881 264.943 490.787 276.379C514.155 262.224 537.549 248.097 560.943 233.97L591.501 215.518L459.587 134.942C429.304 116.435 399.035 97.9005 368.779 79.3662C351.46 90.0063 334.128 100.619 316.796 111.232L146.701 215.436L164.072 225.636C191.914 242.001 219.756 258.367 247.585 274.745L247.571 274.718Z" fill="#3DDE74"/>
<path d="M351.695 529.41L351.328 529.162L276.528 481.069C263.407 472.626 250.3 464.182 237.166 455.766C234.227 453.886 232.6 450.906 232.613 447.378C232.613 443.52 232.613 439.648 232.561 435.777L231.393 331.586C231.288 321.825 231.183 312.064 231.104 302.302C228.467 300.778 225.83 299.227 223.206 297.676L130.207 243.061V389.304C130.207 430.848 130.207 472.406 130.181 513.951C150.833 526.375 171.471 538.828 192.11 551.294L353.139 648.51V643.567C353.139 631.595 353.125 619.747 353.139 607.899C353.178 591.506 353.23 575.114 353.283 558.707L353.375 532.073C353.375 531.551 353.401 531.016 353.44 530.467C352.981 530.22 352.535 529.972 352.115 529.698C352.076 529.67 351.722 529.423 351.682 529.41H351.695Z" fill="black"/>
<path d="M263.604 302.589C263.171 302.837 262.712 303.084 262.24 303.317C262.279 303.784 262.305 304.251 262.318 304.704L263.447 413.864L272.867 407.864C299.765 390.744 326.675 373.638 353.598 356.545C353.559 342.582 353.546 328.62 353.546 314.657L353.506 249.526L263.617 302.589H263.604Z" fill="#AAAAAA"/>
<path d="M460.781 443.628L414.819 414.166C399.534 404.377 384.248 394.574 368.976 384.758C345.582 399.668 322.175 414.564 298.768 429.46L277.093 443.244L295.317 454.955C319.826 470.702 344.336 486.463 368.819 502.252C392.973 486.834 417.142 471.43 441.323 456.026L460.781 443.628Z" fill="#3DDE74"/>
<path d="M607.167 243.638L603.952 245.574C571.505 265.165 539.058 284.756 506.598 304.307C506.624 332.699 506.637 361.077 506.637 389.455L506.663 447.378C506.663 450.755 505.207 453.474 502.452 455.217C497.584 458.265 492.756 461.354 487.927 464.443L472.432 474.328C443.107 493.027 413.796 511.713 384.458 530.384C384.432 539.034 384.393 547.683 384.34 556.332L384.025 648.51L449.55 608.929C502.097 577.187 554.632 545.459 607.193 513.758C607.167 426.331 607.167 338.918 607.167 251.491V243.651V243.638Z" fill="#AAAAAA"/>
<path d="M638.183 211.716C638.183 208.147 636.779 205.483 633.985 203.781C621.56 196.244 609.161 188.651 596.762 181.059L454.823 94.3185C431.548 80.0952 408.285 65.8718 385.035 51.621C383.802 50.8659 382.555 50.1245 381.309 49.3831C378.226 47.5434 375.313 45.7998 372.518 43.864C371.468 43.1364 370.235 42.752 368.989 42.752H368.385C366.693 42.752 365.131 43.4521 363.977 44.5917C355.251 49.9597 346.526 55.3141 337.788 60.6685L103.875 203.932C100.844 205.799 99.1642 208.819 99.1642 212.471C99.1904 317.431 99.1904 422.403 99.1642 527.349C99.1642 531.893 101.578 534.296 103.612 535.518C125.576 548.711 147.513 561.946 169.451 575.195L290.62 648.385C315.011 663.102 339.402 677.82 363.78 692.565C365.341 693.513 366.955 693.979 368.556 693.979C370.156 693.979 371.77 693.499 373.318 692.565C400.714 675.98 428.123 659.423 455.532 642.866L461.161 639.475C518.393 604.918 575.638 570.349 632.896 535.834C636.399 533.733 638.183 530.465 638.183 526.141C638.17 462.067 638.17 398.007 638.17 333.947V211.73L638.183 211.716ZM316.795 111.205C334.127 100.593 351.473 89.9664 368.779 79.3401C399.035 97.8744 429.304 116.409 459.586 134.916L591.5 215.492L560.943 233.944C537.549 248.071 514.155 262.198 490.787 276.353C471.88 264.917 452.96 253.508 434.04 242.099L412.969 229.386C399.874 221.491 386.78 213.583 373.699 205.648C372.177 204.714 370.629 204.261 369.094 204.261C367.559 204.261 366.063 204.701 364.541 205.607C342.774 218.471 320.994 231.335 299.227 244.186L247.571 274.692C219.742 258.313 191.9 241.948 164.059 225.583L146.687 215.382L316.782 111.178L316.795 111.205ZM475.659 304.745C475.62 339.095 475.62 373.459 475.62 407.809V414.976L397.893 365.194C393.511 362.38 389.129 359.565 384.733 356.765C384.733 350.394 384.733 344.024 384.707 337.64L384.537 249.815L475.659 304.759V304.745ZM353.585 356.545C326.662 373.638 299.765 390.744 272.854 407.864L263.434 413.864L262.305 304.704C262.305 304.251 262.266 303.784 262.227 303.317C262.699 303.084 263.158 302.837 263.591 302.589L353.48 249.526L353.52 314.657C353.52 328.62 353.519 342.582 353.572 356.545H353.585ZM353.388 532.072L353.296 558.706C353.244 575.099 353.178 591.491 353.152 607.898C353.126 619.746 353.139 631.594 353.152 643.566V648.508L192.137 551.293C171.498 538.826 150.859 526.36 130.207 513.949C130.234 472.405 130.234 430.847 130.234 389.303V243.06L223.232 297.674C225.87 299.226 228.507 300.777 231.131 302.301C231.21 312.063 231.315 321.824 231.42 331.585L232.587 435.776C232.627 439.647 232.653 443.519 232.64 447.377C232.64 450.905 234.24 453.884 237.193 455.765C250.326 464.181 263.434 472.625 276.554 481.068L351.355 529.161L351.722 529.408C351.722 529.408 352.116 529.683 352.155 529.697C352.575 529.971 353.021 530.232 353.48 530.465C353.441 531.015 353.415 531.55 353.415 532.072H353.388ZM368.831 502.238C344.348 486.45 319.839 470.689 295.33 454.942L277.105 443.231L298.78 429.447C322.188 414.55 345.608 399.668 368.989 384.744C384.261 394.561 399.546 404.363 414.832 414.152L460.793 443.615L441.335 456.012C417.167 471.416 392.986 486.807 368.831 502.238ZM449.549 608.9L384.025 648.481L384.34 556.304C384.379 547.654 384.432 538.991 384.458 530.356C413.795 511.684 443.107 492.985 472.431 474.3L487.927 464.415C492.755 461.326 497.583 458.25 502.451 455.189C505.219 453.445 506.676 450.727 506.663 447.349L506.637 389.426C506.637 361.048 506.623 332.67 506.597 304.278C539.057 284.728 571.505 265.136 603.952 245.545L607.166 243.609V251.448C607.166 338.862 607.166 426.289 607.193 513.716C554.632 545.416 502.097 577.158 449.549 608.886V608.9Z" fill="white"/>
<path d="M384.694 337.639C384.707 344.009 384.72 350.379 384.72 356.763C389.116 359.564 393.498 362.379 397.88 365.193L475.607 414.975V407.808C475.607 373.458 475.607 339.094 475.646 304.744L384.524 249.8L384.694 337.625V337.639Z" fill="black"/>
<path d="M247.571 274.717L299.227 244.211C320.994 231.36 342.774 218.496 364.541 205.632C366.05 204.74 367.572 204.287 369.094 204.287C370.616 204.287 372.178 204.753 373.699 205.673C386.768 213.609 399.862 221.503 412.969 229.411L434.041 242.124C452.961 253.533 471.881 264.942 490.787 276.378C514.155 262.223 537.549 248.096 560.943 233.969L591.501 215.517L459.587 134.941C429.304 116.434 399.035 97.8996 368.779 79.3652C351.46 90.0053 334.128 100.618 316.796 111.231L146.701 215.435L164.072 225.635C191.914 242 219.756 258.366 247.585 274.744L247.571 274.717Z" fill="#3DDE74"/>
<path d="M351.695 529.409L351.328 529.161L276.528 481.068C263.407 472.625 250.3 464.181 237.166 455.765C234.227 453.885 232.6 450.905 232.613 447.377C232.613 443.519 232.613 439.647 232.561 435.776L231.393 331.585C231.288 321.824 231.183 312.063 231.104 302.301C228.467 300.777 225.83 299.226 223.206 297.675L130.207 243.06V389.303C130.207 430.847 130.207 472.405 130.181 513.95C150.833 526.374 171.471 538.827 192.11 551.293L353.139 648.509V643.566C353.139 631.594 353.125 619.746 353.139 607.898C353.178 591.505 353.23 575.113 353.283 558.707L353.375 532.072C353.375 531.55 353.401 531.015 353.44 530.466C352.981 530.219 352.535 529.971 352.115 529.697C352.076 529.669 351.722 529.422 351.682 529.409H351.695Z" fill="black"/>
<path d="M263.604 302.588C263.171 302.836 262.712 303.083 262.24 303.316C262.279 303.783 262.305 304.25 262.318 304.703L263.447 413.863L272.867 407.863C299.765 390.743 326.675 373.637 353.598 356.544C353.559 342.581 353.546 328.619 353.546 314.656L353.506 249.525L263.617 302.588H263.604Z" fill="#AAAAAA"/>
<path d="M460.781 443.627L414.819 414.165C399.534 404.376 384.248 394.573 368.976 384.757C345.582 399.667 322.175 414.563 298.768 429.459L277.093 443.243L295.317 454.954C319.826 470.701 344.336 486.462 368.819 502.251C392.973 486.833 417.142 471.429 441.323 456.025L460.781 443.627Z" fill="#3DDE74"/>
<path d="M607.167 243.637L603.952 245.573C571.505 265.164 539.058 284.755 506.598 304.306C506.624 332.698 506.637 361.076 506.637 389.454L506.663 447.377C506.663 450.754 505.207 453.473 502.452 455.216C497.584 458.264 492.756 461.353 487.927 464.442L472.432 474.327C443.107 493.026 413.796 511.712 384.458 530.383C384.432 539.033 384.393 547.682 384.34 556.331L384.025 648.509L449.55 608.928C502.097 577.186 554.632 545.458 607.193 513.757C607.167 426.33 607.167 338.917 607.167 251.49V243.65V243.637Z" fill="#AAAAAA"/>
<path d="M638.183 211.715C638.183 208.146 636.779 205.482 633.985 203.78C621.56 196.243 609.161 188.65 596.762 181.058L454.823 94.3176C431.548 80.0942 408.285 65.8708 385.035 51.62C383.802 50.8649 382.555 50.1235 381.309 49.3822C378.226 47.5425 375.313 45.7988 372.518 43.863C371.468 43.1354 370.235 42.751 368.989 42.751H368.385C366.693 42.751 365.131 43.4512 363.977 44.5907C355.251 49.9588 346.526 55.3132 337.788 60.6675L103.875 203.931C100.844 205.798 99.1642 208.818 99.1642 212.47C99.1904 317.43 99.1904 422.403 99.1642 527.348C99.1642 531.892 101.578 534.295 103.612 535.517C125.576 548.71 147.513 561.945 169.451 575.194L290.62 648.384C315.011 663.102 339.402 677.819 363.78 692.564C365.341 693.512 366.955 693.978 368.556 693.978C370.156 693.978 371.77 693.498 373.318 692.564C400.714 675.98 428.123 659.422 455.532 642.865L461.161 639.474C518.393 604.917 575.638 570.348 632.896 535.833C636.399 533.732 638.183 530.464 638.183 526.14C638.17 462.066 638.17 398.006 638.17 333.946V211.729L638.183 211.715ZM316.795 111.204C334.127 100.592 351.473 89.9654 368.779 79.3391C399.035 97.8734 429.304 116.408 459.586 134.915L591.5 215.491L560.943 233.943C537.549 248.07 514.155 262.197 490.787 276.352C471.88 264.916 452.96 253.507 434.04 242.098L412.969 229.385C399.874 221.49 386.78 213.582 373.699 205.647C372.177 204.713 370.629 204.26 369.094 204.26C367.559 204.26 366.063 204.7 364.541 205.606C342.774 218.47 320.994 231.334 299.227 244.185L247.571 274.691C219.742 258.312 191.9 241.947 164.059 225.582L146.687 215.381L316.782 111.177L316.795 111.204ZM475.659 304.744C475.62 339.094 475.62 373.458 475.62 407.808V414.975L397.893 365.193C393.511 362.379 389.129 359.564 384.733 356.764C384.733 350.393 384.733 344.023 384.707 337.639L384.537 249.814L475.659 304.758V304.744ZM353.585 356.544C326.662 373.637 299.765 390.743 272.854 407.863L263.434 413.863L262.305 304.703C262.305 304.25 262.266 303.783 262.227 303.316C262.699 303.083 263.158 302.836 263.591 302.588L353.48 249.525L353.52 314.656C353.52 328.619 353.519 342.581 353.572 356.544H353.585ZM353.388 532.071L353.296 558.705C353.244 575.098 353.178 591.49 353.152 607.897C353.126 619.745 353.139 631.593 353.152 643.565V648.507L192.137 551.292C171.498 538.826 150.859 526.359 130.207 513.948C130.234 472.404 130.234 430.846 130.234 389.302V243.059L223.232 297.673C225.87 299.225 228.507 300.776 231.131 302.3C231.21 312.062 231.315 321.823 231.42 331.584L232.587 435.775C232.627 439.646 232.653 443.518 232.64 447.376C232.64 450.904 234.24 453.883 237.193 455.764C250.326 464.18 263.434 472.624 276.554 481.067L351.355 529.16L351.722 529.407C351.722 529.407 352.116 529.682 352.155 529.696C352.575 529.97 353.021 530.231 353.48 530.464C353.441 531.014 353.415 531.549 353.415 532.071H353.388ZM368.831 502.237C344.348 486.449 319.839 470.688 295.33 454.941L277.105 443.23L298.78 429.446C322.188 414.549 345.608 399.667 368.989 384.744C384.261 394.56 399.546 404.362 414.832 414.151L460.793 443.614L441.335 456.011C417.167 471.415 392.986 486.806 368.831 502.237ZM449.549 608.899L384.025 648.48L384.34 556.303C384.379 547.653 384.432 538.99 384.458 530.355C413.795 511.683 443.107 492.984 472.431 474.299L487.927 464.414C492.755 461.325 497.583 458.249 502.451 455.188C505.219 453.444 506.676 450.726 506.663 447.348L506.637 389.425C506.637 361.047 506.623 332.669 506.597 304.277C539.057 284.727 571.505 265.135 603.952 245.544L607.166 243.608V251.447C607.166 338.861 607.166 426.288 607.193 513.715C554.632 545.415 502.097 577.157 449.549 608.885V608.899Z" fill="white"/>
</svg>
