<svg width="2300" height="519" viewBox="0 0 2300 519" fill="none" xmlns="http://www.w3.org/2000/svg">
<path d="M207.478 172.653C176.88 172.653 151.945 182.019 133.366 200.461V78.1104H54.9766V440.875H130.066V414.898C148.563 434.714 174.557 444.747 207.478 444.747C283.382 444.747 336.389 388.796 336.389 308.7C336.389 228.603 283.382 172.653 207.478 172.653ZM194.725 239.219C232.005 239.219 257.062 267.153 257.062 308.7C257.062 350.247 232.005 378.181 194.725 378.181C157.445 378.181 132.388 350.247 132.388 308.7C132.388 267.153 157.445 239.219 194.725 239.219Z" fill="white"/>
<path d="M474.873 78.1104H396.483V440.876H474.873V78.1104Z" fill="white"/>
<path d="M1147.38 343.713C1134.91 366.568 1116.37 378.183 1092.29 378.183C1053.87 378.183 1028.08 350.249 1028.08 308.702C1028.08 267.155 1053.87 239.221 1092.29 239.221C1115.76 239.221 1134.83 251.127 1147.38 273.691L1148.52 275.731L1209.59 242.219L1208.7 240.179C1190.08 197.258 1147.83 172.655 1092.74 172.655C1009.3 172.655 948.755 229.855 948.755 308.702C948.755 387.55 1009.3 444.749 1092.74 444.749C1147.5 444.749 1189.79 420.313 1208.7 377.725L1209.59 375.685L1148.48 341.631L1147.34 343.713H1147.38Z" fill="white"/>
<path d="M1536.88 176.524H1442.48L1338.18 277.519V78.1104H1259.79V440.876H1338.18V373.393L1371.01 340.256L1450.34 440.876H1545.56L1428.63 289.092L1536.88 176.524Z" fill="white"/>
<path d="M1716.44 138.394C1726.95 138.394 1737.01 141.474 1744.84 147.136L1747.36 148.968L1768.39 89.728L1766.88 88.6872C1753.88 79.5286 1732.9 74.2832 1709.35 74.2832C1646.36 74.2832 1608.8 111.251 1608.8 173.196V182.355H1569.6V245.05H1608.8V440.92H1687.19V245.05H1750.46V182.355H1685.31V173.654C1685.31 149.967 1695.5 138.435 1716.48 138.435L1716.44 138.394Z" fill="white"/>
<path d="M1982.24 307.246C1982.24 350.167 1961.75 374.77 1926.05 374.77C1893.46 374.77 1876.96 354.496 1876.96 314.49V176.527H1798.57V325.605C1798.57 401.33 1839.03 444.75 1909.51 444.75C1939.7 444.75 1966.63 433.802 1985.99 413.736V440.879H2060.59V176.527H1982.2V307.246H1982.24Z" fill="white"/>
<path d="M2202.75 78.1104H2124.36V440.876H2202.75V78.1104Z" fill="white"/>
<path d="M724.18 245.238C724.189 249.323 724.197 253.408 724.197 257.502C727.008 259.298 729.811 261.103 732.613 262.908L782.32 294.831V290.235C782.32 268.208 782.32 246.171 782.345 224.144L724.071 188.911L724.18 245.229V245.238Z" fill="#AAAAAA"/>
<path d="M636.489 204.888L669.523 185.326C683.443 177.086 697.372 168.836 711.292 160.587C712.257 160.015 713.231 159.724 714.204 159.724C715.177 159.724 716.176 160.024 717.149 160.613C725.506 165.702 733.88 170.764 742.263 175.835L755.738 183.988C767.838 191.304 779.937 198.62 792.028 205.954C806.972 196.877 821.933 187.818 836.894 178.758L856.436 166.926L772.075 115.256C752.709 103.388 733.352 91.5025 714.003 79.6172C702.927 86.4402 691.843 93.2457 680.758 100.051L571.98 166.873L583.09 173.414C600.895 183.909 618.7 194.403 636.497 204.906L636.489 204.888Z" fill="#3DDE74"/>
<path d="M703.076 368.213L702.841 368.054L655.006 337.214C646.615 331.8 638.232 326.385 629.833 320.988C627.954 319.782 626.913 317.872 626.922 315.609C626.922 313.135 626.922 310.652 626.888 308.17L626.141 241.357C626.074 235.097 626.007 228.837 625.957 222.578C624.27 221.601 622.584 220.606 620.906 219.611L561.432 184.589V278.368C561.432 305.009 561.432 331.659 561.415 358.299C574.622 366.267 587.821 374.252 601.019 382.246L703.999 444.587V441.417C703.999 433.74 703.991 426.143 703.999 418.545C704.024 408.033 704.058 397.521 704.092 387L704.15 369.921C704.15 369.586 704.167 369.243 704.192 368.891C703.899 368.732 703.613 368.574 703.345 368.398C703.32 368.38 703.093 368.221 703.068 368.213H703.076Z" fill="#AAAAAA"/>
<path d="M646.742 222.762C646.465 222.921 646.171 223.079 645.869 223.229C645.894 223.528 645.911 223.827 645.919 224.118L646.641 294.118L652.666 290.271C669.867 279.292 687.076 268.322 704.294 257.362C704.269 248.408 704.26 239.454 704.26 230.501L704.235 188.735L646.75 222.762H646.742Z" fill="white"/>
<path d="M772.839 313.205L743.446 294.312C733.671 288.034 723.896 281.748 714.129 275.454C699.168 285.015 684.199 294.567 669.23 304.119L655.368 312.958L667.023 320.468C682.697 330.566 698.371 340.673 714.028 350.798C729.475 340.911 744.931 331.033 760.395 321.155L772.839 313.205Z" fill="#3DDE74"/>
<path d="M866.454 184.958L864.398 186.2C843.648 198.763 822.897 211.326 802.138 223.863C802.155 242.07 802.164 260.267 802.164 278.465L802.18 315.609C802.18 317.775 801.249 319.518 799.487 320.636C796.374 322.59 793.286 324.571 790.198 326.552L780.289 332.891C761.536 344.882 742.791 356.864 724.029 368.838C724.012 374.384 723.987 379.93 723.953 385.477L723.752 444.587L765.655 419.205C799.26 398.85 832.857 378.504 866.47 358.176C866.454 302.112 866.454 246.058 866.454 189.994V184.967V184.958Z" fill="white"/>
</svg>
